<svg viewBox="0 0 102 102" xmlns="http://www.w3.org/2000/svg">
    <path d="M58.125,21.875 C60.9176471,21.875 63.8403979,23.7888094 65.0317423,26.3867407 L65.234375,26.8815696 L66.686875,30.9040838 C67.130599,32.1319158 68.6341233,33.1897528 69.9570973,33.3575323 L70.3125,33.3806818 L81.5625,33.3806818 C84.6407738,33.3806818 87.2411565,35.8902481 87.4818317,38.984796 L87.5,39.453125 L87.5,72.0525568 C87.5,75.2007914 85.0462018,77.8602737 82.0204217,78.1064188 L81.5625,78.125 L18.125,78.125 C15.0464286,78.125 12.7297619,75.6154337 12.5161079,72.5208858 L12.5,72.0525568 L12.5,39.453125 C12.5,36.3048904 14.670068,33.6454082 17.6690962,33.399263 L18.125,33.3806818 L30,33.3806818 C31.2426562,33.3806818 32.5630382,32.436175 33.0832963,31.2581151 L33.2046875,30.9315696 L34.3771875,27.0506392 C35.2168576,24.2730469 37.9160176,22.1254755 40.7490202,21.8954292 L41.25,21.875 L58.125,21.875 Z M50,34.375 C38.7816406,34.375 29.6875,43.4691406 29.6875,54.6875 C29.6875,65.9058594 38.7816406,75 50,75 C61.2183594,75 70.3125,65.9058594 70.3125,54.6875 C70.3125,43.4691406 61.2183594,34.375 50,34.375 Z M50,37.5 C59.4771875,37.5 67.1875,45.2103125 67.1875,54.6875 C67.1875,64.1646875 59.4771875,71.875 50,71.875 C40.5228125,71.875 32.8125,64.1646875 32.8125,54.6875 C32.8125,45.2103125 40.5228125,37.5 50,37.5 Z M50,60.9375 C48.2740385,60.9375 46.875,62.3365385 46.875,64.0625 C46.875,65.7884615 48.2740385,67.1875 50,67.1875 C51.7259615,67.1875 53.125,65.7884615 53.125,64.0625 C53.125,62.3365385 51.7259615,60.9375 50,60.9375 Z M53.125,42.1875 L46.875,42.1875 L46.875,57.8125 L53.125,57.8125 L53.125,42.1875 Z"></path>
</svg>